<svg width="29" height="23" viewBox="0 0 29 23" fill="none" xmlns="http://www.w3.org/2000/svg">
<path d="M25.9315 20.1121V20.2117H18.2967C17.291 20.2118 16.3159 20.6278 15.619 21.3484H15.618L15.5379 21.4304H27.1668V4.85913L25.9324 4.21753L25.9315 20.1121ZM1.23322 4.85913V21.4304H12.8611L12.7811 21.3484C12.0841 20.6277 11.1082 20.2126 10.1024 20.2126H2.46759V4.21753L1.23322 4.85913ZM18.3123 1.23315C16.3589 1.23337 14.7666 2.82544 14.7664 4.78003V20.5974L14.8045 20.5583C15.7164 19.6179 16.9886 19.078 18.2977 19.0779H24.7996V1.23315H18.3123ZM3.60138 19.0779H10.1024C11.4116 19.0779 12.6845 19.6178 13.5965 20.5583L13.6336 20.5964V4.78003C13.6334 2.82524 12.0412 1.23315 10.0877 1.23315H3.60138V19.0779ZM25.9324 2.93628L28.2459 4.14331L28.2996 4.17163V22.5642H0.100403V4.17163L0.154114 4.14331L2.46759 2.9353V0.100342H10.0877C11.8628 0.100397 13.4073 1.09421 14.2 2.55054C14.9927 1.09533 16.5361 0.100491 18.3123 0.100342L25.8328 0.101318H25.9324V2.93628Z" fill="#048AE5" stroke="#048AE5" stroke-width="0.2"/>
</svg>
