<svg width="11" height="11" viewBox="0 0 11 11" fill="none" xmlns="http://www.w3.org/2000/svg">
<path d="M1.69589 0.199707V0.200684C1.61434 0.199934 1.53334 0.214244 1.45761 0.244629C1.38082 0.275474 1.31048 0.321309 1.25156 0.379395C1.19265 0.437477 1.14579 0.507174 1.11386 0.583496C1.08201 0.659743 1.06601 0.742068 1.06601 0.824707C1.06607 0.907158 1.08209 0.988854 1.11386 1.06494C1.14578 1.14124 1.19268 1.21097 1.25156 1.26904C1.31048 1.32713 1.38082 1.37296 1.45761 1.40381C1.53335 1.43421 1.61432 1.4485 1.69589 1.44775V1.44873H8.46835L0.40683 9.51221C0.343989 9.56893 0.292793 9.63842 0.257416 9.71533C0.222036 9.79227 0.201962 9.8758 0.199799 9.96045C0.197677 10.045 0.213372 10.129 0.24472 10.2075C0.276067 10.286 0.322679 10.3577 0.382416 10.4175C0.442215 10.4773 0.513863 10.5247 0.592377 10.5562C0.671027 10.5876 0.755782 10.6023 0.840424 10.6001C0.925039 10.5979 1.00865 10.5788 1.08554 10.5435C1.15952 10.5094 1.22541 10.4605 1.28085 10.4009V10.4019L9.35117 2.33154V9.10107L9.36191 9.22412C9.36944 9.26467 9.38063 9.3048 9.39609 9.34326C9.4269 9.41986 9.47289 9.48951 9.53085 9.54834C9.58895 9.60726 9.65865 9.65411 9.73495 9.68604C9.81106 9.71784 9.89267 9.7348 9.97519 9.73486C10.0579 9.73486 10.1401 9.71792 10.2164 9.68604C10.2927 9.65411 10.3624 9.60726 10.4205 9.54834C10.4785 9.48951 10.5245 9.41985 10.5553 9.34326C10.5861 9.2665 10.6013 9.18379 10.6002 9.10107V0.824707C10.6002 0.659365 10.5343 0.500333 10.4176 0.383301C10.3005 0.266215 10.1408 0.199723 9.97519 0.199707H1.69589Z" fill="#048AE5" stroke="#048AE5" stroke-width="0.4"/>
</svg>
