<svg width="11" height="11" viewBox="0 0 11 11" fill="none" xmlns="http://www.w3.org/2000/svg">
<path d="M1.5459 0.125V0.125977C1.47383 0.125223 1.40186 0.138167 1.33496 0.165039C1.26761 0.192176 1.206 0.232232 1.1543 0.283203C1.10259 0.334215 1.06128 0.39492 1.0332 0.461914C1.0051 0.529079 0.991211 0.601995 0.991211 0.674805C0.991268 0.747465 1.00516 0.819684 1.0332 0.886719C1.06127 0.953728 1.10259 1.0144 1.1543 1.06543C1.20608 1.11648 1.2675 1.15743 1.33496 1.18457C1.40186 1.21144 1.47383 1.22341 1.5459 1.22266V1.22363H8.50098L0.306641 9.41797C0.251335 9.46789 0.205933 9.52899 0.174805 9.59668C0.143722 9.66433 0.126902 9.73808 0.125 9.8125C0.123142 9.88688 0.136473 9.96118 0.164062 10.0303C0.19169 10.0994 0.233508 10.1622 0.286133 10.2148C0.338779 10.2674 0.401595 10.3093 0.470703 10.3369C0.539836 10.3645 0.614085 10.3769 0.688477 10.375C0.76293 10.3731 0.83664 10.3563 0.904297 10.3252C0.970128 10.2949 1.02903 10.2515 1.07812 10.1982L9.27637 1.99902V8.95215C9.27535 9.02493 9.28926 9.0975 9.31641 9.16504C9.34354 9.23249 9.38352 9.29391 9.43457 9.3457C9.48559 9.39744 9.54629 9.43871 9.61328 9.4668C9.68028 9.49482 9.75255 9.50971 9.8252 9.50977C9.898 9.50977 9.97095 9.49488 10.0381 9.4668C10.1051 9.43871 10.1658 9.39743 10.2168 9.3457C10.2678 9.29392 10.3078 9.23248 10.335 9.16504C10.3621 9.0975 10.376 9.02493 10.375 8.95215V0.674805C10.375 0.529122 10.3169 0.389148 10.2139 0.286133C10.1109 0.183115 9.97087 0.125014 9.8252 0.125H1.5459Z" fill="white" stroke="white" stroke-width="0.25"/>
</svg>
