<svg width="40" height="40" viewBox="0 0 40 40" fill="none" xmlns="http://www.w3.org/2000/svg">
<path d="M37.4554 10.274C37.2692 9.94304 36.8486 9.82583 36.5177 10.0051C36.1867 10.1913 36.0626 10.6119 36.2487 10.9429C37.2831 12.7977 37.9795 14.825 38.3312 16.9142C36.2487 15.0662 32.284 13.6113 27.085 12.8873C26.361 7.68826 24.906 3.72314 23.0581 1.64107C25.4715 2.041 27.7813 2.90293 29.8568 4.21303C30.1809 4.41989 30.6084 4.32336 30.8083 3.99927C31.0083 3.67519 30.9118 3.25457 30.5946 3.04773C27.4296 1.05498 23.7614 0 19.9896 0H19.769C15.2456 0.0482698 10.998 1.57215 7.48129 4.39927C7.18479 4.64061 7.13652 5.07499 7.37786 5.37151C7.51577 5.54389 7.71573 5.62663 7.91572 5.62663C8.06742 5.62663 8.21912 5.57836 8.35013 5.47494C10.8532 3.4546 13.7632 2.16516 16.9004 1.64111C15.6592 3.04776 14.5835 5.30945 13.7975 8.28803C13.701 8.65348 13.9216 9.03273 14.2871 9.12924C14.6594 9.22577 15.0318 9.00512 15.1283 8.63966C16.2729 4.30936 18.0795 1.53069 19.8379 1.37888H19.962C22.3271 1.34441 24.6853 6.06774 25.6782 12.7151C23.8578 12.5151 21.9547 12.4117 19.9894 12.4117C19.286 12.4117 18.5758 12.4255 17.8932 12.4531C17.5139 12.4669 17.2174 12.7909 17.2312 13.1702C17.245 13.5494 17.5484 13.8597 17.9483 13.8322C18.6172 13.8046 19.2998 13.7908 19.9894 13.7908C22.0235 13.7908 23.9887 13.908 25.8574 14.1286C26.078 15.9973 26.1953 17.9694 26.1953 19.9967C26.1953 22.024 26.078 23.996 25.8643 25.8647C23.9956 26.0853 22.0236 26.2026 19.9896 26.2026C17.9557 26.2026 15.9903 26.0853 14.1216 25.8647C13.901 23.996 13.7838 22.024 13.7838 19.9967C13.7838 19.3071 13.7975 18.6245 13.8251 17.9556C13.8389 17.5764 13.5424 17.2523 13.1632 17.2385C12.7632 17.204 12.4598 17.5212 12.446 17.9005C12.4185 18.5831 12.4047 19.2933 12.4047 19.9967C12.4047 21.9618 12.5081 23.865 12.7081 25.6855C6.08851 24.6995 1.37186 22.362 1.37186 19.9967C1.37186 18.1901 4.15759 16.3214 8.63969 15.1353C9.00515 15.0387 9.22579 14.6595 9.12927 14.294C9.03276 13.9286 8.65351 13.708 8.28806 13.8045C5.30238 14.5974 3.04052 15.6662 1.64114 16.9074C2.24105 13.3149 3.87524 9.97757 6.39884 7.28164C6.66086 7.00583 6.64707 6.56452 6.36436 6.30941C6.08855 6.04738 5.64724 6.06117 5.39213 6.34388C1.96514 9.99841 0.0549975 14.7701 0.00689537 19.7348C0 19.8313 0 19.921 0 20.0106C0 31.0362 8.97083 40.007 19.9964 40.007C25.5749 40.007 30.9394 37.6487 34.7249 33.5392C34.98 33.2565 34.9662 32.8221 34.6835 32.567C34.4008 32.3119 33.9664 32.3257 33.7113 32.6084C30.898 35.6699 27.1469 37.6763 23.0992 38.3661C23.4026 38.0282 23.706 37.6214 24.0094 37.1318C24.2094 36.8077 24.1129 36.3871 23.7888 36.1802C23.4647 35.9803 23.0441 36.0768 22.8372 36.4009C22.2097 37.4145 21.203 38.6281 20.0032 38.6281C17.6381 38.6281 15.3007 33.9115 14.3144 27.2919C16.1348 27.4919 18.0379 27.5953 20.0032 27.5953C21.9686 27.5953 23.8715 27.485 25.6921 27.2919L25.6507 27.5608C25.5886 27.9332 25.8438 28.2917 26.223 28.3538C26.2575 28.3538 26.2989 28.3607 26.3334 28.3607C26.6643 28.3607 26.9608 28.1194 27.016 27.7815C27.0505 27.5608 27.0781 27.3402 27.1125 27.1126C32.3186 26.3886 36.2833 24.9337 38.3658 23.0789C37.9245 25.7336 36.9178 28.2642 35.3801 30.5122C35.1663 30.8294 35.2422 31.2569 35.5594 31.4706C35.6766 31.5534 35.8145 31.5879 35.9455 31.5879C36.1662 31.5879 36.3799 31.4844 36.5178 31.2845C38.8002 27.954 40 24.0511 40 20.0039C40 16.5975 39.1312 13.2396 37.4763 10.2815L37.4554 10.274ZM16.9141 38.352C9.10165 37.0488 2.9234 30.8706 1.62685 23.0648C3.70927 24.9196 7.67404 26.3746 12.8801 27.0986C13.6041 32.3046 15.0661 36.2695 16.9141 38.352ZM27.264 25.6782C27.4639 23.8578 27.5674 21.9547 27.5674 19.9893C27.5674 18.024 27.457 16.121 27.264 14.3005C33.8835 15.2865 38.6002 17.624 38.6002 19.9893C38.6002 22.3546 33.8835 24.6919 27.264 25.6782Z" fill="white"/>
<path d="M33.7732 9.6535C35.297 9.6535 36.5313 8.41922 36.5313 6.89536C36.5313 5.37149 35.297 4.13721 33.7732 4.13721C32.2493 4.13721 31.015 5.37149 31.015 6.89536C31.015 8.41922 32.2493 9.6535 33.7732 9.6535ZM33.7732 5.51628C34.5317 5.51628 35.1522 6.13684 35.1522 6.89536C35.1522 7.65387 34.5317 8.27443 33.7732 8.27443C33.0147 8.27443 32.3941 7.65387 32.3941 6.89536C32.3941 6.13684 33.0147 5.51628 33.7732 5.51628Z" fill="white"/>
<path d="M22.7406 32.4081C22.7406 33.9319 23.9749 35.1662 25.4987 35.1662C27.0226 35.1662 28.2569 33.9319 28.2569 32.4081C28.2569 30.8842 27.0226 29.6499 25.4987 29.6499C23.9749 29.6499 22.7406 30.8842 22.7406 32.4081ZM26.8778 32.4081C26.8778 33.1666 26.2573 33.7871 25.4987 33.7871C24.7402 33.7871 24.1197 33.1666 24.1197 32.4081C24.1197 31.6495 24.7402 31.029 25.4987 31.029C26.2573 31.029 26.8778 31.6495 26.8778 32.4081Z" fill="white"/>
<path d="M15.8452 13.1012C15.8452 11.5773 14.6109 10.343 13.087 10.343C11.5631 10.343 10.3289 11.5773 10.3289 13.1012C10.3289 14.625 11.5631 15.8593 13.087 15.8593C14.6109 15.8593 15.8452 14.625 15.8452 13.1012ZM11.7079 13.1012C11.7079 12.3427 12.3285 11.7221 13.087 11.7221C13.8455 11.7221 14.4661 12.3427 14.4661 13.1012C14.4661 13.8597 13.8455 14.4802 13.087 14.4802C12.3285 14.4802 11.7079 13.8597 11.7079 13.1012Z" fill="white"/>
</svg>
