<svg width="14" height="13" viewBox="0 0 14 13" fill="none" xmlns="http://www.w3.org/2000/svg">
<path d="M2.88008 1.44073C2.87988 1.82264 2.72798 2.18884 2.45779 2.45876C2.18759 2.72868 1.82124 2.88021 1.43932 2.88002C1.0574 2.87983 0.691193 2.72793 0.421268 2.45774C0.151344 2.18755 -0.000190781 1.8212 1.80265e-07 1.43929C0.000191141 1.05738 0.152092 0.691179 0.422286 0.42126C0.692481 0.151341 1.05884 -0.000190777 1.44076 1.80262e-07C1.82268 0.000191137 2.18888 0.152089 2.45881 0.422278C2.72873 0.692468 2.88027 1.05882 2.88008 1.44073ZM2.92328 3.94635H0.0432013V12.9608H2.92328V3.94635ZM7.47379 3.94635H4.60812V12.9608H7.44499V8.23038C7.44499 5.59516 10.8795 5.35036 10.8795 8.23038V12.9608H13.7236V7.25117C13.7236 2.80874 8.64023 2.97434 7.44499 5.15596L7.47379 3.94635Z" fill="white"/>
</svg>
