<svg width="16" height="16" viewBox="0 0 16 16" fill="none" xmlns="http://www.w3.org/2000/svg">
<path d="M10.4917 1.23429C11.3919 1.23429 12.2553 1.59191 12.8919 2.22846C13.5285 2.86502 13.8861 3.72838 13.8861 4.6286V10.4915C13.8861 11.3917 13.5285 12.2551 12.8919 12.8916C12.2553 13.5282 11.3919 13.8858 10.4917 13.8858H4.62869C3.72845 13.8858 2.86508 13.5282 2.22851 12.8916C1.59194 12.2551 1.23432 11.3917 1.23432 10.4915V4.6286C1.23432 3.72838 1.59194 2.86502 2.22851 2.22846C2.86508 1.59191 3.72845 1.23429 4.62869 1.23429H10.4917ZM10.4917 0H4.62869C3.40221 0.00366291 2.22701 0.492494 1.35976 1.35973C0.492503 2.22697 0.00366298 3.40215 0 4.6286V10.4915C0.00366298 11.718 0.492503 12.8931 1.35976 13.7604C2.22701 14.6276 3.40221 15.1164 4.62869 15.1201H10.4917C11.7182 15.1164 12.8934 14.6276 13.7606 13.7604C14.6279 12.8931 15.1167 11.718 15.1204 10.4915V4.6286C15.1167 3.40215 14.6279 2.22697 13.7606 1.35973C12.8934 0.492494 11.7182 0.00366291 10.4917 0Z" fill="white"/>
<path d="M11.5938 2.62207C11.4189 2.62207 11.248 2.67392 11.1026 2.77106C10.9572 2.8682 10.8439 3.00628 10.777 3.16782C10.7101 3.32936 10.6926 3.50711 10.7267 3.67861C10.7608 3.8501 10.845 4.00762 10.9686 4.13126C11.0923 4.2549 11.2498 4.3391 11.4213 4.37321C11.5928 4.40732 11.7705 4.38981 11.9321 4.3229C12.0936 4.25599 12.2317 4.14268 12.3289 3.99729C12.426 3.85191 12.4778 3.68098 12.4778 3.50613C12.4778 3.39004 12.455 3.27508 12.4105 3.16782C12.3661 3.06056 12.301 2.9631 12.2189 2.88101C12.1368 2.79891 12.0394 2.73379 11.9321 2.68937C11.8248 2.64494 11.7099 2.62207 11.5938 2.62207Z" fill="white"/>
<path d="M7.60349 4.85637C8.14314 4.85607 8.67076 5.01583 9.11958 5.31544C9.56841 5.61506 9.91828 6.04107 10.1249 6.53957C10.3316 7.03807 10.3857 7.58667 10.2805 8.11595C10.1753 8.64523 9.9155 9.13142 9.53391 9.513C9.15232 9.89458 8.66613 10.1544 8.13684 10.2596C7.60754 10.3648 7.05894 10.3107 6.56042 10.104C6.06191 9.89737 5.6359 9.5475 5.33628 9.09868C5.03665 8.64986 4.87689 8.12226 4.8772 7.58262C4.87842 6.85995 5.16605 6.16723 5.67706 5.65622C6.18808 5.14522 6.88081 4.8576 7.60349 4.85637ZM7.60349 3.62208C6.82012 3.6236 6.05477 3.85731 5.40418 4.29366C4.75359 4.73002 4.24695 5.34943 3.94829 6.07363C3.64964 6.79783 3.57236 7.59431 3.72624 8.36241C3.88011 9.13052 4.25823 9.83577 4.81281 10.389C5.36739 10.9423 6.07354 11.3188 6.84201 11.4709C7.61048 11.6229 8.40679 11.5438 9.13031 11.2435C9.85382 10.9431 10.4721 10.435 10.9069 9.78345C11.3417 9.13186 11.5737 8.36598 11.5734 7.58262C11.5732 7.06179 11.4703 6.54611 11.2706 6.06509C11.0709 5.58406 10.7783 5.14712 10.4096 4.77927C10.0409 4.41142 9.60326 4.11987 9.12176 3.92131C8.64026 3.72275 8.12433 3.62106 7.60349 3.62208Z" fill="white"/>
</svg>
