<svg width="21" height="26" viewBox="0 0 21 26" fill="none" xmlns="http://www.w3.org/2000/svg">
<path d="M19.6862 10.2181C19.6862 16.1274 13.1307 22.2817 10.9294 24.1824C10.7243 24.3366 10.4747 24.42 10.2181 24.42C9.96153 24.42 9.7119 24.3366 9.50683 24.1824C7.30549 22.2817 0.75 16.1274 0.75 10.2181C0.75 7.70702 1.74753 5.29876 3.52315 3.52315C5.29876 1.74753 7.70702 0.75 10.2181 0.75C12.7292 0.75 15.1375 1.74753 16.9131 3.52315C18.6887 5.29876 19.6862 7.70702 19.6862 10.2181Z" stroke="#048AE5" stroke-width="1.5" stroke-linecap="round" stroke-linejoin="round"/>
<path d="M10.2181 13.7687C12.179 13.7687 13.7687 12.179 13.7687 10.2181C13.7687 8.25721 12.179 6.66757 10.2181 6.66757C8.25721 6.66757 6.66757 8.25721 6.66757 10.2181C6.66757 12.179 8.25721 13.7687 10.2181 13.7687Z" stroke="#048AE5" stroke-width="1.5" stroke-linecap="round" stroke-linejoin="round"/>
</svg>
