<svg width="22" height="18" viewBox="0 0 22 18" fill="none" xmlns="http://www.w3.org/2000/svg">
<path fill-rule="evenodd" clip-rule="evenodd" d="M3.07365 0H18.9264C20.6215 0 22 1.38128 22 3.07365V14.039C22 15.7324 20.6196 17.1127 18.9264 17.1127H3.07365C1.38028 17.1127 0 15.7332 0 14.039V3.07365C0 1.38119 1.37857 0 3.07365 0ZM20.5763 2.40973L13.2149 9.77117C11.9955 10.9905 10.0046 10.9905 8.78513 9.77117L1.42278 2.40973C1.33955 2.61507 1.29433 2.83851 1.29433 3.0737V14.0391C1.29433 15.0187 2.09397 15.8184 3.07363 15.8184H18.9263C19.906 15.8184 20.7056 15.0187 20.7056 14.0391L20.7047 3.0737C20.7047 2.83942 20.6586 2.61507 20.5754 2.40973H20.5763ZM2.31016 1.46717L9.69961 8.85662C10.4133 9.57032 11.5856 9.57032 12.2995 8.85662L19.6889 1.46717C19.4573 1.35591 19.1986 1.2944 18.9254 1.2944H3.07367C2.80049 1.2944 2.54173 1.35681 2.31016 1.46717Z" fill="#048AE5"/>
</svg>
