<svg width="23" height="23" viewBox="0 0 23 23" fill="none" xmlns="http://www.w3.org/2000/svg">
<path fill-rule="evenodd" clip-rule="evenodd" d="M0.00443677 6.3421C-0.0689115 5.02072 0.776811 3.09135 1.82703 1.73881C2.24378 1.20203 2.69944 0.74526 3.15064 0.439645C3.67743 0.0829041 4.2142 -0.0804587 4.7143 0.0384359C5.06439 0.121787 5.37444 0.334065 5.62449 0.701902L5.63227 0.713015L5.63338 0.711904L5.64894 0.735242L8.44398 5.23298C8.47065 5.27632 8.59068 5.49971 8.68181 5.68307H8.68292C8.75516 5.82866 8.8185 5.97423 8.83517 6.05981C9.04744 7.19006 8.32728 8.14802 7.54824 9.18595C7.34709 9.45379 7.14038 9.72828 6.95701 9.99836L6.9559 9.99947L6.95701 10.0006C6.94034 10.0261 6.92367 10.055 6.91367 10.0839C7.27263 10.7041 7.61381 11.2064 7.985 11.6731C8.36954 12.1577 8.79741 12.6156 9.3164 13.1346C9.8354 13.6536 10.2933 14.0814 10.7778 14.466C11.2446 14.8372 11.748 15.1783 12.367 15.5373C12.3959 15.5273 12.4259 15.5117 12.4504 15.494C12.4604 15.4873 12.4704 15.4806 12.4804 15.4751C12.7404 15.2961 13.005 15.0983 13.2639 14.9038C14.3019 14.1237 15.2599 13.4046 16.39 13.6169C16.4756 13.6325 16.6201 13.6958 16.7668 13.7692C16.7768 13.7747 16.7857 13.7792 16.7957 13.7847C16.9724 13.8736 17.1757 13.9825 17.2169 14.0081L21.7146 16.8031L21.738 16.8187C21.7546 16.8298 21.7702 16.8409 21.7857 16.8531C22.1303 17.0987 22.3314 17.3988 22.4114 17.7367C22.5303 18.2368 22.3681 18.7736 22.0102 19.3003C21.7046 19.7515 21.2478 20.2072 20.7111 20.6239C19.3586 21.6742 17.4293 22.5199 16.1078 22.4465C14.3218 22.3476 12.4746 21.7731 10.6965 20.8562C8.8272 19.8927 7.03234 18.5502 5.46756 16.9844C3.90278 15.4196 2.5602 13.6247 1.59573 11.7555C0.678857 9.97509 0.104469 8.12794 0.00443677 6.3421ZM2.69278 2.40683C1.77816 3.58596 1.03799 5.21631 1.09688 6.28207C1.1869 7.90796 1.71812 9.60509 2.5672 11.2521C3.47628 13.0147 4.75101 14.7162 6.2413 16.2065C7.73384 17.6979 9.4343 18.9715 11.1968 19.8806C12.8427 20.7296 14.5409 21.2609 16.1668 21.352C17.2326 21.4109 18.8641 20.6707 20.0421 19.7561C20.4933 19.406 20.8678 19.0371 21.1056 18.6859C21.2923 18.4102 21.3857 18.1658 21.3435 17.9868C21.3235 17.9046 21.2646 17.8224 21.1579 17.7446L21.1445 17.7368L21.1345 17.7301L16.6368 14.9351C16.609 14.9184 16.4512 14.8339 16.3056 14.7606C16.2956 14.7562 16.2867 14.7528 16.2767 14.7473C16.2034 14.7106 16.2178 14.695 16.1867 14.6895C15.5277 14.5661 14.7541 15.1462 13.9173 15.7753C13.6528 15.9742 13.3827 16.1765 13.0938 16.3754C13.0849 16.3821 13.0749 16.3898 13.0649 16.3965C12.9227 16.4932 12.7237 16.5843 12.5237 16.6199C12.3103 16.6588 12.0881 16.6399 11.8913 16.5277C11.1934 16.1276 10.6266 15.7442 10.0943 15.3218C9.56194 14.8995 9.0774 14.4483 8.53838 13.9093C7.99938 13.3703 7.54927 12.8858 7.12587 12.3534C6.70355 11.8211 6.32015 11.2543 5.92005 10.5564C5.80669 10.3586 5.78891 10.1363 5.82781 9.924C5.86448 9.72396 5.9545 9.52504 6.05119 9.38279L6.0523 9.3839C6.25679 9.08272 6.46682 8.80377 6.67243 8.53038C7.30145 7.69354 7.88158 6.92117 7.75822 6.26211C7.746 6.24655 7.73377 6.22877 7.72377 6.21099C7.7171 6.2021 7.70932 6.18876 7.70043 6.17098L7.70154 6.16987L7.70043 6.16765C7.62486 6.01539 7.53151 5.8387 7.51372 5.8098L4.71869 1.31206L4.71202 1.30094L4.71313 1.29983C4.63312 1.18536 4.54754 1.12202 4.46197 1.10201C4.28304 1.05978 4.03854 1.15314 3.76294 1.33984C3.41175 1.58101 3.04287 1.95563 2.69278 2.40683Z" fill="#048AE5"/>
</svg>
