<svg width="40" height="36" viewBox="0 0 40 36" fill="none" xmlns="http://www.w3.org/2000/svg">
<path d="M26.0005 26.242C25.1821 28.2166 23.8481 29.781 22.2427 30.6502C22.1489 30.701 22.0454 30.7264 21.9458 30.7264C21.7231 30.7264 21.5083 30.6072 21.395 30.3982C21.2309 30.0935 21.3442 29.7146 21.6469 29.5506C24.3852 28.0682 26.0883 24.0996 25.4438 20.7011C25.1782 19.3007 24.2563 16.8945 21.0786 16.5097C18.3442 16.1758 15.9146 18.2871 15.4301 21.4179C15.3774 21.7597 15.0571 21.9921 14.7153 21.9394C14.3735 21.8867 14.1391 21.5664 14.1938 21.2246C14.477 19.3965 15.3461 17.7832 16.6391 16.6816C17.9457 15.5683 19.5766 15.0644 21.2309 15.2656C24.1293 15.6172 26.1136 17.5117 26.6743 20.4646C27.022 22.3025 26.7837 24.3532 26.0005 26.242ZM15.2445 27.5877C18.1859 27.5877 20.803 25.4764 21.3385 22.4802C21.399 22.1404 21.1725 21.8142 20.8326 21.7537C20.4928 21.6931 20.1666 21.9197 20.1061 22.2595C19.6276 24.9431 17.0553 26.7361 14.3736 26.2576C13.192 26.0486 12.1275 25.4138 11.3756 24.4744C11.1607 24.2048 10.7662 24.1599 10.4967 24.3748C10.2271 24.5896 10.1822 24.9841 10.3971 25.2536C11.3365 26.4314 12.6724 27.2243 14.1529 27.488C14.522 27.5564 14.8851 27.5877 15.2445 27.5877ZM28.9924 24.533C28.6585 24.4451 28.3166 24.6443 28.2268 24.9783C28.1761 25.1717 28.1136 25.3787 28.0374 25.6072C27.555 27.0193 26.7678 28.2264 25.762 29.0975C25.5003 29.324 25.4729 29.7185 25.6975 29.9802C25.8206 30.1228 25.9964 30.197 26.1702 30.197C26.3147 30.197 26.4612 30.1463 26.5784 30.0447C27.7522 29.0291 28.6643 27.6365 29.221 26.0076C29.3069 25.7498 29.3753 25.5174 29.4339 25.3006C29.5257 24.9646 29.3264 24.6229 28.9924 24.533ZM26.969 14.949C25.262 13.246 22.9241 12.3475 20.2075 12.3475C18.27 12.3475 16.2231 13.0799 14.5925 14.3592C12.8719 15.7088 11.7664 17.5174 11.4793 19.4532C11.0984 22.0254 12.2762 24.3907 14.1628 24.8382C14.8484 25.0003 17.2038 25.1917 18.6492 20.8089C19.2 19.139 20.2839 18.7522 21.114 18.9456C22.2234 19.2053 23.1941 20.5569 22.9011 22.637C22.5124 25.387 19.907 28.2034 17.0926 28.9124C15.5106 29.3109 13.7801 29.2464 11.9482 28.723C11.6161 28.6273 11.2704 28.8206 11.1747 29.1527C11.079 29.4847 11.2724 29.8304 11.6044 29.9261C12.7587 30.2562 13.8837 30.4222 14.9677 30.4222C15.8036 30.4222 16.6161 30.3246 17.3993 30.1273C18.9599 29.7347 20.5146 28.7816 21.7743 27.4457C23.0732 26.0687 23.9149 24.4242 24.1415 22.8148C24.5399 19.9887 23.0654 18.1176 21.4013 17.7288C19.9911 17.3988 18.2274 18.1038 17.4638 20.4183C16.7255 22.6605 15.5712 23.887 14.454 23.6214C13.3681 23.3636 12.413 21.7015 12.7196 19.637C13.204 16.3635 16.6337 13.598 20.2096 13.598C25.6316 13.598 28.0436 17.4202 28.4926 20.9985C28.5356 21.3422 28.8481 21.5844 29.1918 21.5414C29.5355 21.4985 29.7777 21.186 29.7347 20.8422C29.4437 18.5297 28.4613 16.436 26.9691 14.9498L26.969 14.949ZM40 3.39059V31.99C40 33.8611 38.4785 35.3845 36.6054 35.3845H3.39454C1.52149 35.3845 0 33.8611 0 31.99V3.39059C0 1.52145 1.52149 1.879e-06 3.39454 1.879e-06H36.6074C38.4785 -0.00195161 40 1.51955 40 3.39059ZM1.2521 3.39059V7.68547H38.75V3.39059C38.75 2.21089 37.789 1.25 36.6074 1.25H3.39449C2.21284 1.25 1.2521 2.21094 1.2521 3.39059ZM38.748 31.99V8.93557H1.2521V31.99C1.2521 33.1716 2.21304 34.1326 3.39469 34.1326H36.6076C37.7873 34.1326 38.748 33.1716 38.748 31.99ZM3.36709 5.09158H4.75183C5.09754 5.09158 5.37683 4.81229 5.37683 4.46659C5.37683 4.12088 5.09754 3.84159 4.75183 3.84159H3.36709C3.02138 3.84159 2.74209 4.12088 2.74209 4.46659C2.74209 4.81229 3.02138 5.09158 3.36709 5.09158ZM8.86307 5.09158H10.2478C10.5935 5.09158 10.8728 4.81229 10.8728 4.46659C10.8728 4.12088 10.5935 3.84159 10.2478 3.84159H8.86307C8.51736 3.84159 8.23807 4.12088 8.23807 4.46659C8.23807 4.81229 8.51736 5.09158 8.86307 5.09158ZM14.359 5.09158H15.7438C16.0895 5.09158 16.3688 4.81229 16.3688 4.46659C16.3688 4.12088 16.0895 3.84159 15.7438 3.84159H14.359C14.0133 3.84159 13.734 4.12088 13.734 4.46659C13.734 4.81229 14.0133 5.09158 14.359 5.09158ZM26.945 5.09158H36.6365C36.9822 5.09158 37.2615 4.81229 37.2615 4.46659C37.2615 4.12088 36.9822 3.84159 36.6365 3.84159H26.945C26.5993 3.84159 26.32 4.12088 26.32 4.46659C26.318 4.81229 26.5993 5.09158 26.945 5.09158Z" fill="white"/>
</svg>
