<svg width="38" height="40" viewBox="0 0 38 40" fill="none" xmlns="http://www.w3.org/2000/svg">
<path d="M12.785 37.8382C14.5117 38.685 16.3834 39.4017 18.3502 39.9667H18.3519C18.3602 39.97 18.3685 39.9717 18.3785 39.975C18.4385 39.9917 18.4985 40 18.5569 40H18.5602H18.5635C18.6235 40 18.6835 39.9917 18.7419 39.975C18.7502 39.9717 18.7585 39.97 18.7685 39.9667H18.7702C20.737 39.4017 22.6087 38.6866 24.3354 37.8382C32.2222 33.9664 37.1227 26.3711 37.1227 18.0175V7.09702C37.1227 6.72867 36.8244 6.43033 36.456 6.43033C32.8825 6.43033 29.9743 3.84522 29.9743 0.666692C29.9743 0.298345 29.6759 0 29.3076 0H7.81513C7.44678 0 7.14843 0.298345 7.14843 0.666692C7.14843 3.84347 4.24166 6.43033 0.666692 6.43033C0.298345 6.43033 0 6.72867 0 7.09702V18.0192C0 26.3746 4.90003 33.9699 12.7873 37.84L12.785 37.8382ZM1.3328 7.73704C5.08961 7.44703 8.09657 4.73524 8.44646 1.33338H28.6772C29.0272 4.7352 32.0357 7.4469 35.7909 7.73704V18.0175C35.7909 25.8595 31.1776 32.9962 23.7503 36.6414C22.1402 37.4314 20.3935 38.0998 18.5618 38.6365C16.7284 38.0998 14.9817 37.4314 13.3734 36.6414C5.94652 32.9962 1.3328 25.8591 1.3328 18.0175V7.73704Z" fill="white"/>
<path d="M18.5618 29.2726C24.4987 29.2726 29.3271 24.4426 29.3271 18.5074C29.3271 12.5705 24.497 7.74219 18.5618 7.74219C12.625 7.74219 7.79663 12.5722 7.79663 18.5074C7.79663 24.4443 12.6267 29.2726 18.5618 29.2726ZM18.5618 9.07344C23.7623 9.07344 27.9937 13.3053 27.9937 18.5053C27.9937 23.7053 23.7618 27.9371 18.5618 27.9371C13.3619 27.9371 9.13002 23.7053 9.13002 18.5053C9.13002 13.3053 13.3619 9.07344 18.5618 9.07344Z" fill="white"/>
<path d="M17.1402 21.7972C17.2702 21.9272 17.4402 21.9922 17.6119 21.9922C17.7819 21.9922 17.9536 21.9272 18.0836 21.7972L23.7205 16.1603C23.9805 15.9003 23.9805 15.4786 23.7205 15.217C23.4605 14.957 23.0388 14.957 22.7772 15.217L17.6105 20.382L14.3437 17.1152C14.0837 16.8552 13.662 16.8552 13.4003 17.1152C13.1403 17.3752 13.1403 17.7969 13.4003 18.0586L17.1371 21.7954L17.1402 21.7972Z" fill="white"/>
</svg>
